<?xml version="1.0" encoding="UTF-8" standalone="no"?>
<!DOCTYPE svg PUBLIC "-//W3C//DTD SVG 1.1//EN"
 "http://www.w3.org/Graphics/SVG/1.1/DTD/svg11.dtd">
<!-- Generated by graphviz version 7.1.0 (20230121.1956)
 -->
<!-- Title: Tree Pages: 1 -->
<svg width="852pt" height="671pt"
 viewBox="0.00 0.00 852.00 671.00" xmlns="http://www.w3.org/2000/svg" xmlns:xlink="http://www.w3.org/1999/xlink">
<g id="graph0" class="graph" transform="scale(1 1) rotate(0) translate(4 667)">
<title>Tree</title>
<polygon fill="white" stroke="none" points="-4,4 -4,-667 848,-667 848,4 -4,4"/>
<!-- 0 -->
<g id="node1" class="node">
<title>0</title>
<path fill="#ffffff" stroke="black" d="M507.5,-663C507.5,-663 385.5,-663 385.5,-663 379.5,-663 373.5,-657 373.5,-651 373.5,-651 373.5,-592 373.5,-592 373.5,-586 379.5,-580 385.5,-580 385.5,-580 507.5,-580 507.5,-580 513.5,-580 519.5,-586 519.5,-592 519.5,-592 519.5,-651 519.5,-651 519.5,-657 513.5,-663 507.5,-663"/>
<text text-anchor="start" x="381.5" y="-647.8" font-family="Helvetica,sans-Serif" font-size="14.00">petal width (cm) ≤ 0.8</text>
<text text-anchor="start" x="411" y="-632.8" font-family="Helvetica,sans-Serif" font-size="14.00">gini = 0.667</text>
<text text-anchor="start" x="401.5" y="-617.8" font-family="Helvetica,sans-Serif" font-size="14.00">samples = 150</text>
<text text-anchor="start" x="388.5" y="-602.8" font-family="Helvetica,sans-Serif" font-size="14.00">value = [50, 50, 50]</text>
<text text-anchor="start" x="403" y="-587.8" font-family="Helvetica,sans-Serif" font-size="14.00">class = setosa</text>
</g>
<!-- 1 -->
<g id="node2" class="node">
<title>1</title>
<path fill="#e58139" stroke="black" d="M416,-536.5C416,-536.5 323,-536.5 323,-536.5 317,-536.5 311,-530.5 311,-524.5 311,-524.5 311,-480.5 311,-480.5 311,-474.5 317,-468.5 323,-468.5 323,-468.5 416,-468.5 416,-468.5 422,-468.5 428,-474.5 428,-480.5 428,-480.5 428,-524.5 428,-524.5 428,-530.5 422,-536.5 416,-536.5"/>
<text text-anchor="start" x="341.5" y="-521.3" font-family="Helvetica,sans-Serif" font-size="14.00">gini = 0.0</text>
<text text-anchor="start" x="328.5" y="-506.3" font-family="Helvetica,sans-Serif" font-size="14.00">samples = 50</text>
<text text-anchor="start" x="319" y="-491.3" font-family="Helvetica,sans-Serif" font-size="14.00">value = [50, 0, 0]</text>
<text text-anchor="start" x="326" y="-476.3" font-family="Helvetica,sans-Serif" font-size="14.00">class = setosa</text>
</g>
<!-- 0&#45;&gt;1 -->
<g id="edge1" class="edge">
<title>0&#45;&gt;1</title>
<path fill="none" stroke="black" d="M419.57,-579.58C412.46,-568.77 404.77,-557.09 397.6,-546.19"/>
<polygon fill="black" stroke="black" points="400.71,-544.55 392.29,-538.13 394.86,-548.4 400.71,-544.55"/>
<text text-anchor="middle" x="386.41" y="-557.65" font-family="Helvetica,sans-Serif" font-size="14.00">True</text>
</g>
<!-- 2 -->
<g id="node3" class="node">
<title>2</title>
<path fill="#ffffff" stroke="black" d="M588.5,-544C588.5,-544 458.5,-544 458.5,-544 452.5,-544 446.5,-538 446.5,-532 446.5,-532 446.5,-473 446.5,-473 446.5,-467 452.5,-461 458.5,-461 458.5,-461 588.5,-461 588.5,-461 594.5,-461 600.5,-467 600.5,-473 600.5,-473 600.5,-532 600.5,-532 600.5,-538 594.5,-544 588.5,-544"/>
<text text-anchor="start" x="454.5" y="-528.8" font-family="Helvetica,sans-Serif" font-size="14.00">petal width (cm) ≤ 1.75</text>
<text text-anchor="start" x="495.5" y="-513.8" font-family="Helvetica,sans-Serif" font-size="14.00">gini = 0.5</text>
<text text-anchor="start" x="478.5" y="-498.8" font-family="Helvetica,sans-Serif" font-size="14.00">samples = 100</text>
<text text-anchor="start" x="469" y="-483.8" font-family="Helvetica,sans-Serif" font-size="14.00">value = [0, 50, 50]</text>
<text text-anchor="start" x="471" y="-468.8" font-family="Helvetica,sans-Serif" font-size="14.00">class = versicolor</text>
</g>
<!-- 0&#45;&gt;2 -->
<g id="edge2" class="edge">
<title>0&#45;&gt;2</title>
<path fill="none" stroke="black" d="M473.43,-579.58C478.91,-571.25 484.74,-562.39 490.41,-553.78"/>
<polygon fill="black" stroke="black" points="493.31,-555.74 495.88,-545.46 487.46,-551.89 493.31,-555.74"/>
<text text-anchor="middle" x="501.76" y="-564.99" font-family="Helvetica,sans-Serif" font-size="14.00">False</text>
</g>
<!-- 3 -->
<g id="node4" class="node">
<title>3</title>
<path fill="#4de88e" stroke="black" d="M480,-425C480,-425 345,-425 345,-425 339,-425 333,-419 333,-413 333,-413 333,-354 333,-354 333,-348 339,-342 345,-342 345,-342 480,-342 480,-342 486,-342 492,-348 492,-354 492,-354 492,-413 492,-413 492,-419 486,-425 480,-425"/>
<text text-anchor="start" x="341" y="-409.8" font-family="Helvetica,sans-Serif" font-size="14.00">petal length (cm) ≤ 4.95</text>
<text text-anchor="start" x="377" y="-394.8" font-family="Helvetica,sans-Serif" font-size="14.00">gini = 0.168</text>
<text text-anchor="start" x="371.5" y="-379.8" font-family="Helvetica,sans-Serif" font-size="14.00">samples = 54</text>
<text text-anchor="start" x="362" y="-364.8" font-family="Helvetica,sans-Serif" font-size="14.00">value = [0, 49, 5]</text>
<text text-anchor="start" x="360" y="-349.8" font-family="Helvetica,sans-Serif" font-size="14.00">class = versicolor</text>
</g>
<!-- 2&#45;&gt;3 -->
<g id="edge3" class="edge">
<title>2&#45;&gt;3</title>
<path fill="none" stroke="black" d="M484.68,-460.58C476.35,-451.8 467.47,-442.44 458.89,-433.39"/>
<polygon fill="black" stroke="black" points="461.58,-431.14 452.15,-426.3 456.5,-435.96 461.58,-431.14"/>
</g>
<!-- 12 -->
<g id="node13" class="node">
<title>12</title>
<path fill="#843de6" stroke="black" d="M702,-425C702,-425 567,-425 567,-425 561,-425 555,-419 555,-413 555,-413 555,-354 555,-354 555,-348 561,-342 567,-342 567,-342 702,-342 702,-342 708,-342 714,-348 714,-354 714,-354 714,-413 714,-413 714,-419 708,-425 702,-425"/>
<text text-anchor="start" x="563" y="-409.8" font-family="Helvetica,sans-Serif" font-size="14.00">petal length (cm) ≤ 4.85</text>
<text text-anchor="start" x="599" y="-394.8" font-family="Helvetica,sans-Serif" font-size="14.00">gini = 0.043</text>
<text text-anchor="start" x="593.5" y="-379.8" font-family="Helvetica,sans-Serif" font-size="14.00">samples = 46</text>
<text text-anchor="start" x="584" y="-364.8" font-family="Helvetica,sans-Serif" font-size="14.00">value = [0, 1, 45]</text>
<text text-anchor="start" x="586" y="-349.8" font-family="Helvetica,sans-Serif" font-size="14.00">class = virginica</text>
</g>
<!-- 2&#45;&gt;12 -->
<g id="edge12" class="edge">
<title>2&#45;&gt;12</title>
<path fill="none" stroke="black" d="M562.32,-460.58C570.65,-451.8 579.53,-442.44 588.11,-433.39"/>
<polygon fill="black" stroke="black" points="590.5,-435.96 594.85,-426.3 585.42,-431.14 590.5,-435.96"/>
</g>
<!-- 4 -->
<g id="node5" class="node">
<title>4</title>
<path fill="#3de684" stroke="black" d="M260.5,-306C260.5,-306 130.5,-306 130.5,-306 124.5,-306 118.5,-300 118.5,-294 118.5,-294 118.5,-235 118.5,-235 118.5,-229 124.5,-223 130.5,-223 130.5,-223 260.5,-223 260.5,-223 266.5,-223 272.5,-229 272.5,-235 272.5,-235 272.5,-294 272.5,-294 272.5,-300 266.5,-306 260.5,-306"/>
<text text-anchor="start" x="126.5" y="-290.8" font-family="Helvetica,sans-Serif" font-size="14.00">petal width (cm) ≤ 1.65</text>
<text text-anchor="start" x="160" y="-275.8" font-family="Helvetica,sans-Serif" font-size="14.00">gini = 0.041</text>
<text text-anchor="start" x="154.5" y="-260.8" font-family="Helvetica,sans-Serif" font-size="14.00">samples = 48</text>
<text text-anchor="start" x="145" y="-245.8" font-family="Helvetica,sans-Serif" font-size="14.00">value = [0, 47, 1]</text>
<text text-anchor="start" x="143" y="-230.8" font-family="Helvetica,sans-Serif" font-size="14.00">class = versicolor</text>
</g>
<!-- 3&#45;&gt;4 -->
<g id="edge4" class="edge">
<title>3&#45;&gt;4</title>
<path fill="none" stroke="black" d="M336.6,-341.58C318.76,-331.96 299.63,-321.64 281.38,-311.81"/>
<polygon fill="black" stroke="black" points="283.15,-308.78 272.69,-307.12 279.83,-314.94 283.15,-308.78"/>
</g>
<!-- 7 -->
<g id="node8" class="node">
<title>7</title>
<path fill="#c09cf2" stroke="black" d="M477.5,-306C477.5,-306 347.5,-306 347.5,-306 341.5,-306 335.5,-300 335.5,-294 335.5,-294 335.5,-235 335.5,-235 335.5,-229 341.5,-223 347.5,-223 347.5,-223 477.5,-223 477.5,-223 483.5,-223 489.5,-229 489.5,-235 489.5,-235 489.5,-294 489.5,-294 489.5,-300 483.5,-306 477.5,-306"/>
<text text-anchor="start" x="343.5" y="-290.8" font-family="Helvetica,sans-Serif" font-size="14.00">petal width (cm) ≤ 1.55</text>
<text text-anchor="start" x="377" y="-275.8" font-family="Helvetica,sans-Serif" font-size="14.00">gini = 0.444</text>
<text text-anchor="start" x="375" y="-260.8" font-family="Helvetica,sans-Serif" font-size="14.00">samples = 6</text>
<text text-anchor="start" x="365.5" y="-245.8" font-family="Helvetica,sans-Serif" font-size="14.00">value = [0, 2, 4]</text>
<text text-anchor="start" x="364" y="-230.8" font-family="Helvetica,sans-Serif" font-size="14.00">class = virginica</text>
</g>
<!-- 3&#45;&gt;7 -->
<g id="edge7" class="edge">
<title>3&#45;&gt;7</title>
<path fill="none" stroke="black" d="M412.5,-341.58C412.5,-333.79 412.5,-325.53 412.5,-317.45"/>
<polygon fill="black" stroke="black" points="416,-317.71 412.5,-307.71 409,-317.71 416,-317.71"/>
</g>
<!-- 5 -->
<g id="node6" class="node">
<title>5</title>
<path fill="#39e581" stroke="black" d="M109,-179.5C109,-179.5 12,-179.5 12,-179.5 6,-179.5 0,-173.5 0,-167.5 0,-167.5 0,-123.5 0,-123.5 0,-117.5 6,-111.5 12,-111.5 12,-111.5 109,-111.5 109,-111.5 115,-111.5 121,-117.5 121,-123.5 121,-123.5 121,-167.5 121,-167.5 121,-173.5 115,-179.5 109,-179.5"/>
<text text-anchor="start" x="32.5" y="-164.3" font-family="Helvetica,sans-Serif" font-size="14.00">gini = 0.0</text>
<text text-anchor="start" x="19.5" y="-149.3" font-family="Helvetica,sans-Serif" font-size="14.00">samples = 47</text>
<text text-anchor="start" x="10" y="-134.3" font-family="Helvetica,sans-Serif" font-size="14.00">value = [0, 47, 0]</text>
<text text-anchor="start" x="8" y="-119.3" font-family="Helvetica,sans-Serif" font-size="14.00">class = versicolor</text>
</g>
<!-- 4&#45;&gt;5 -->
<g id="edge5" class="edge">
<title>4&#45;&gt;5</title>
<path fill="none" stroke="black" d="M148.28,-222.58C135.06,-211.12 120.69,-198.67 107.48,-187.22"/>
<polygon fill="black" stroke="black" points="109.99,-184.76 100.14,-180.85 105.4,-190.05 109.99,-184.76"/>
</g>
<!-- 6 -->
<g id="node7" class="node">
<title>6</title>
<path fill="#8139e5" stroke="black" d="M240,-179.5C240,-179.5 151,-179.5 151,-179.5 145,-179.5 139,-173.5 139,-167.5 139,-167.5 139,-123.5 139,-123.5 139,-117.5 145,-111.5 151,-111.5 151,-111.5 240,-111.5 240,-111.5 246,-111.5 252,-117.5 252,-123.5 252,-123.5 252,-167.5 252,-167.5 252,-173.5 246,-179.5 240,-179.5"/>
<text text-anchor="start" x="167.5" y="-164.3" font-family="Helvetica,sans-Serif" font-size="14.00">gini = 0.0</text>
<text text-anchor="start" x="158" y="-149.3" font-family="Helvetica,sans-Serif" font-size="14.00">samples = 1</text>
<text text-anchor="start" x="148.5" y="-134.3" font-family="Helvetica,sans-Serif" font-size="14.00">value = [0, 0, 1]</text>
<text text-anchor="start" x="147" y="-119.3" font-family="Helvetica,sans-Serif" font-size="14.00">class = virginica</text>
</g>
<!-- 4&#45;&gt;6 -->
<g id="edge6" class="edge">
<title>4&#45;&gt;6</title>
<path fill="none" stroke="black" d="M195.5,-222.58C195.5,-212.43 195.5,-201.5 195.5,-191.18"/>
<polygon fill="black" stroke="black" points="199,-191.37 195.5,-181.37 192,-191.37 199,-191.37"/>
</g>
<!-- 8 -->
<g id="node9" class="node">
<title>8</title>
<path fill="#8139e5" stroke="black" d="M371,-179.5C371,-179.5 282,-179.5 282,-179.5 276,-179.5 270,-173.5 270,-167.5 270,-167.5 270,-123.5 270,-123.5 270,-117.5 276,-111.5 282,-111.5 282,-111.5 371,-111.5 371,-111.5 377,-111.5 383,-117.5 383,-123.5 383,-123.5 383,-167.5 383,-167.5 383,-173.5 377,-179.5 371,-179.5"/>
<text text-anchor="start" x="298.5" y="-164.3" font-family="Helvetica,sans-Serif" font-size="14.00">gini = 0.0</text>
<text text-anchor="start" x="289" y="-149.3" font-family="Helvetica,sans-Serif" font-size="14.00">samples = 3</text>
<text text-anchor="start" x="279.5" y="-134.3" font-family="Helvetica,sans-Serif" font-size="14.00">value = [0, 0, 3]</text>
<text text-anchor="start" x="278" y="-119.3" font-family="Helvetica,sans-Serif" font-size="14.00">class = virginica</text>
</g>
<!-- 7&#45;&gt;8 -->
<g id="edge8" class="edge">
<title>7&#45;&gt;8</title>
<path fill="none" stroke="black" d="M382.42,-222.58C374.4,-211.66 365.71,-199.85 357.64,-188.86"/>
<polygon fill="black" stroke="black" points="360.66,-187.07 351.92,-181.08 355.02,-191.21 360.66,-187.07"/>
</g>
<!-- 9 -->
<g id="node10" class="node">
<title>9</title>
<path fill="#9cf2c0" stroke="black" d="M548,-187C548,-187 413,-187 413,-187 407,-187 401,-181 401,-175 401,-175 401,-116 401,-116 401,-110 407,-104 413,-104 413,-104 548,-104 548,-104 554,-104 560,-110 560,-116 560,-116 560,-175 560,-175 560,-181 554,-187 548,-187"/>
<text text-anchor="start" x="409" y="-171.8" font-family="Helvetica,sans-Serif" font-size="14.00">petal length (cm) ≤ 5.45</text>
<text text-anchor="start" x="445" y="-156.8" font-family="Helvetica,sans-Serif" font-size="14.00">gini = 0.444</text>
<text text-anchor="start" x="443" y="-141.8" font-family="Helvetica,sans-Serif" font-size="14.00">samples = 3</text>
<text text-anchor="start" x="433.5" y="-126.8" font-family="Helvetica,sans-Serif" font-size="14.00">value = [0, 2, 1]</text>
<text text-anchor="start" x="428" y="-111.8" font-family="Helvetica,sans-Serif" font-size="14.00">class = versicolor</text>
</g>
<!-- 7&#45;&gt;9 -->
<g id="edge9" class="edge">
<title>7&#45;&gt;9</title>
<path fill="none" stroke="black" d="M436.28,-222.58C441.07,-214.34 446.16,-205.58 451.12,-197.06"/>
<polygon fill="black" stroke="black" points="454.09,-198.91 456.08,-188.51 448.03,-195.4 454.09,-198.91"/>
</g>
<!-- 10 -->
<g id="node11" class="node">
<title>10</title>
<path fill="#39e581" stroke="black" d="M461,-68C461,-68 364,-68 364,-68 358,-68 352,-62 352,-56 352,-56 352,-12 352,-12 352,-6 358,0 364,0 364,0 461,0 461,0 467,0 473,-6 473,-12 473,-12 473,-56 473,-56 473,-62 467,-68 461,-68"/>
<text text-anchor="start" x="384.5" y="-52.8" font-family="Helvetica,sans-Serif" font-size="14.00">gini = 0.0</text>
<text text-anchor="start" x="375" y="-37.8" font-family="Helvetica,sans-Serif" font-size="14.00">samples = 2</text>
<text text-anchor="start" x="365.5" y="-22.8" font-family="Helvetica,sans-Serif" font-size="14.00">value = [0, 2, 0]</text>
<text text-anchor="start" x="360" y="-7.8" font-family="Helvetica,sans-Serif" font-size="14.00">class = versicolor</text>
</g>
<!-- 9&#45;&gt;10 -->
<g id="edge10" class="edge">
<title>9&#45;&gt;10</title>
<path fill="none" stroke="black" d="M455.18,-103.73C449.97,-95.34 444.47,-86.47 439.21,-78.01"/>
<polygon fill="black" stroke="black" points="442.23,-76.23 433.98,-69.59 436.28,-79.93 442.23,-76.23"/>
</g>
<!-- 11 -->
<g id="node12" class="node">
<title>11</title>
<path fill="#8139e5" stroke="black" d="M592,-68C592,-68 503,-68 503,-68 497,-68 491,-62 491,-56 491,-56 491,-12 491,-12 491,-6 497,0 503,0 503,0 592,0 592,0 598,0 604,-6 604,-12 604,-12 604,-56 604,-56 604,-62 598,-68 592,-68"/>
<text text-anchor="start" x="519.5" y="-52.8" font-family="Helvetica,sans-Serif" font-size="14.00">gini = 0.0</text>
<text text-anchor="start" x="510" y="-37.8" font-family="Helvetica,sans-Serif" font-size="14.00">samples = 1</text>
<text text-anchor="start" x="500.5" y="-22.8" font-family="Helvetica,sans-Serif" font-size="14.00">value = [0, 0, 1]</text>
<text text-anchor="start" x="499" y="-7.8" font-family="Helvetica,sans-Serif" font-size="14.00">class = virginica</text>
</g>
<!-- 9&#45;&gt;11 -->
<g id="edge11" class="edge">
<title>9&#45;&gt;11</title>
<path fill="none" stroke="black" d="M505.45,-103.73C510.58,-95.34 516,-86.47 521.19,-78.01"/>
<polygon fill="black" stroke="black" points="524.1,-79.95 526.33,-69.59 518.13,-76.29 524.1,-79.95"/>
</g>
<!-- 13 -->
<g id="node14" class="node">
<title>13</title>
<path fill="#c09cf2" stroke="black" d="M697,-306C697,-306 572,-306 572,-306 566,-306 560,-300 560,-294 560,-294 560,-235 560,-235 560,-229 566,-223 572,-223 572,-223 697,-223 697,-223 703,-223 709,-229 709,-235 709,-235 709,-294 709,-294 709,-300 703,-306 697,-306"/>
<text text-anchor="start" x="568" y="-290.8" font-family="Helvetica,sans-Serif" font-size="14.00">sepal width (cm) ≤ 3.1</text>
<text text-anchor="start" x="599" y="-275.8" font-family="Helvetica,sans-Serif" font-size="14.00">gini = 0.444</text>
<text text-anchor="start" x="597" y="-260.8" font-family="Helvetica,sans-Serif" font-size="14.00">samples = 3</text>
<text text-anchor="start" x="587.5" y="-245.8" font-family="Helvetica,sans-Serif" font-size="14.00">value = [0, 1, 2]</text>
<text text-anchor="start" x="586" y="-230.8" font-family="Helvetica,sans-Serif" font-size="14.00">class = virginica</text>
</g>
<!-- 12&#45;&gt;13 -->
<g id="edge13" class="edge">
<title>12&#45;&gt;13</title>
<path fill="none" stroke="black" d="M634.5,-341.58C634.5,-333.79 634.5,-325.53 634.5,-317.45"/>
<polygon fill="black" stroke="black" points="638,-317.71 634.5,-307.71 631,-317.71 638,-317.71"/>
</g>
<!-- 16 -->
<g id="node17" class="node">
<title>16</title>
<path fill="#8139e5" stroke="black" d="M832,-298.5C832,-298.5 739,-298.5 739,-298.5 733,-298.5 727,-292.5 727,-286.5 727,-286.5 727,-242.5 727,-242.5 727,-236.5 733,-230.5 739,-230.5 739,-230.5 832,-230.5 832,-230.5 838,-230.5 844,-236.5 844,-242.5 844,-242.5 844,-286.5 844,-286.5 844,-292.5 838,-298.5 832,-298.5"/>
<text text-anchor="start" x="757.5" y="-283.3" font-family="Helvetica,sans-Serif" font-size="14.00">gini = 0.0</text>
<text text-anchor="start" x="744.5" y="-268.3" font-family="Helvetica,sans-Serif" font-size="14.00">samples = 43</text>
<text text-anchor="start" x="735" y="-253.3" font-family="Helvetica,sans-Serif" font-size="14.00">value = [0, 0, 43]</text>
<text text-anchor="start" x="737" y="-238.3" font-family="Helvetica,sans-Serif" font-size="14.00">class = virginica</text>
</g>
<!-- 12&#45;&gt;16 -->
<g id="edge16" class="edge">
<title>12&#45;&gt;16</title>
<path fill="none" stroke="black" d="M687.31,-341.58C702.24,-330.01 718.48,-317.43 733.37,-305.89"/>
<polygon fill="black" stroke="black" points="735.49,-308.68 741.25,-299.79 731.2,-303.15 735.49,-308.68"/>
</g>
<!-- 14 -->
<g id="node15" class="node">
<title>14</title>
<path fill="#8139e5" stroke="black" d="M679,-179.5C679,-179.5 590,-179.5 590,-179.5 584,-179.5 578,-173.5 578,-167.5 578,-167.5 578,-123.5 578,-123.5 578,-117.5 584,-111.5 590,-111.5 590,-111.5 679,-111.5 679,-111.5 685,-111.5 691,-117.5 691,-123.5 691,-123.5 691,-167.5 691,-167.5 691,-173.5 685,-179.5 679,-179.5"/>
<text text-anchor="start" x="606.5" y="-164.3" font-family="Helvetica,sans-Serif" font-size="14.00">gini = 0.0</text>
<text text-anchor="start" x="597" y="-149.3" font-family="Helvetica,sans-Serif" font-size="14.00">samples = 2</text>
<text text-anchor="start" x="587.5" y="-134.3" font-family="Helvetica,sans-Serif" font-size="14.00">value = [0, 0, 2]</text>
<text text-anchor="start" x="586" y="-119.3" font-family="Helvetica,sans-Serif" font-size="14.00">class = virginica</text>
</g>
<!-- 13&#45;&gt;14 -->
<g id="edge14" class="edge">
<title>13&#45;&gt;14</title>
<path fill="none" stroke="black" d="M634.5,-222.58C634.5,-212.43 634.5,-201.5 634.5,-191.18"/>
<polygon fill="black" stroke="black" points="638,-191.37 634.5,-181.37 631,-191.37 638,-191.37"/>
</g>
<!-- 15 -->
<g id="node16" class="node">
<title>15</title>
<path fill="#39e581" stroke="black" d="M818,-179.5C818,-179.5 721,-179.5 721,-179.5 715,-179.5 709,-173.5 709,-167.5 709,-167.5 709,-123.5 709,-123.5 709,-117.5 715,-111.5 721,-111.5 721,-111.5 818,-111.5 818,-111.5 824,-111.5 830,-117.5 830,-123.5 830,-123.5 830,-167.5 830,-167.5 830,-173.5 824,-179.5 818,-179.5"/>
<text text-anchor="start" x="741.5" y="-164.3" font-family="Helvetica,sans-Serif" font-size="14.00">gini = 0.0</text>
<text text-anchor="start" x="732" y="-149.3" font-family="Helvetica,sans-Serif" font-size="14.00">samples = 1</text>
<text text-anchor="start" x="722.5" y="-134.3" font-family="Helvetica,sans-Serif" font-size="14.00">value = [0, 1, 0]</text>
<text text-anchor="start" x="717" y="-119.3" font-family="Helvetica,sans-Serif" font-size="14.00">class = versicolor</text>
</g>
<!-- 13&#45;&gt;15 -->
<g id="edge15" class="edge">
<title>13&#45;&gt;15</title>
<path fill="none" stroke="black" d="M681.72,-222.58C694.94,-211.12 709.31,-198.67 722.52,-187.22"/>
<polygon fill="black" stroke="black" points="724.6,-190.05 729.86,-180.85 720.01,-184.76 724.6,-190.05"/>
</g>
</g>
</svg>